<mxfile host="app.diagrams.net" agent="Mozilla/5.0 (Windows NT 10.0; Win64; x64) AppleWebKit/537.36 (KHTML, like Gecko) Chrome/128.0.0.0 Safari/537.36 OPR/114.0.0.0" version="24.8.2">
  <diagram name="Page-1" id="RH9CYKokueCWP-jWKCYE">
    <mxGraphModel dx="769" dy="922" grid="1" gridSize="10" guides="1" tooltips="1" connect="1" arrows="1" fold="1" page="1" pageScale="1" pageWidth="850" pageHeight="1100" math="0" shadow="0">
      <root>
        <mxCell id="0" />
        <mxCell id="1" parent="0" />
        <mxCell id="D1f6TgdDjxvdr5GFky1n-1" value="Bubble sort" style="ellipse;whiteSpace=wrap;html=1;" vertex="1" parent="1">
          <mxGeometry x="320" y="70" width="160" height="80" as="geometry" />
        </mxCell>
        <mxCell id="D1f6TgdDjxvdr5GFky1n-6" style="edgeStyle=orthogonalEdgeStyle;rounded=0;orthogonalLoop=1;jettySize=auto;html=1;exitX=0.5;exitY=1;exitDx=0;exitDy=0;entryX=0.5;entryY=0;entryDx=0;entryDy=0;" edge="1" parent="1" source="D1f6TgdDjxvdr5GFky1n-2" target="D1f6TgdDjxvdr5GFky1n-5">
          <mxGeometry relative="1" as="geometry" />
        </mxCell>
        <mxCell id="D1f6TgdDjxvdr5GFky1n-2" value="Set N" style="shape=parallelogram;perimeter=parallelogramPerimeter;whiteSpace=wrap;html=1;fixedSize=1;" vertex="1" parent="1">
          <mxGeometry x="330" y="210" width="120" height="60" as="geometry" />
        </mxCell>
        <mxCell id="D1f6TgdDjxvdr5GFky1n-3" style="edgeStyle=orthogonalEdgeStyle;rounded=0;orthogonalLoop=1;jettySize=auto;html=1;exitX=0.5;exitY=1;exitDx=0;exitDy=0;entryX=0.6;entryY=0.017;entryDx=0;entryDy=0;entryPerimeter=0;" edge="1" parent="1" source="D1f6TgdDjxvdr5GFky1n-1" target="D1f6TgdDjxvdr5GFky1n-2">
          <mxGeometry relative="1" as="geometry" />
        </mxCell>
        <mxCell id="D1f6TgdDjxvdr5GFky1n-4" value="Length of array" style="text;html=1;align=center;verticalAlign=middle;whiteSpace=wrap;rounded=0;" vertex="1" parent="1">
          <mxGeometry x="480" y="225" width="60" height="30" as="geometry" />
        </mxCell>
        <mxCell id="D1f6TgdDjxvdr5GFky1n-8" style="edgeStyle=orthogonalEdgeStyle;rounded=0;orthogonalLoop=1;jettySize=auto;html=1;exitX=0.5;exitY=1;exitDx=0;exitDy=0;entryX=0.5;entryY=0;entryDx=0;entryDy=0;" edge="1" parent="1" source="D1f6TgdDjxvdr5GFky1n-5" target="D1f6TgdDjxvdr5GFky1n-7">
          <mxGeometry relative="1" as="geometry" />
        </mxCell>
        <mxCell id="D1f6TgdDjxvdr5GFky1n-14" style="edgeStyle=orthogonalEdgeStyle;rounded=0;orthogonalLoop=1;jettySize=auto;html=1;exitX=0;exitY=0.5;exitDx=0;exitDy=0;entryX=0;entryY=0.5;entryDx=0;entryDy=0;" edge="1" parent="1" source="D1f6TgdDjxvdr5GFky1n-5" target="D1f6TgdDjxvdr5GFky1n-10">
          <mxGeometry relative="1" as="geometry">
            <Array as="points">
              <mxPoint x="210" y="385" />
              <mxPoint x="210" y="700" />
            </Array>
          </mxGeometry>
        </mxCell>
        <mxCell id="D1f6TgdDjxvdr5GFky1n-5" value="Array[j] &amp;gt;&lt;div&gt;Array[j+1]&lt;/div&gt;" style="rhombus;whiteSpace=wrap;html=1;" vertex="1" parent="1">
          <mxGeometry x="315" y="310" width="150" height="150" as="geometry" />
        </mxCell>
        <mxCell id="D1f6TgdDjxvdr5GFky1n-11" style="edgeStyle=orthogonalEdgeStyle;rounded=0;orthogonalLoop=1;jettySize=auto;html=1;exitX=0.5;exitY=1;exitDx=0;exitDy=0;entryX=0.5;entryY=0;entryDx=0;entryDy=0;" edge="1" parent="1" source="D1f6TgdDjxvdr5GFky1n-7" target="D1f6TgdDjxvdr5GFky1n-10">
          <mxGeometry relative="1" as="geometry" />
        </mxCell>
        <mxCell id="D1f6TgdDjxvdr5GFky1n-7" value="Swap&lt;div&gt;Array[j] and Array[j+1]&lt;/div&gt;" style="rounded=0;whiteSpace=wrap;html=1;" vertex="1" parent="1">
          <mxGeometry x="270" y="540" width="240" height="60" as="geometry" />
        </mxCell>
        <mxCell id="D1f6TgdDjxvdr5GFky1n-9" value="yes" style="text;html=1;align=center;verticalAlign=middle;whiteSpace=wrap;rounded=0;" vertex="1" parent="1">
          <mxGeometry x="390" y="460" width="60" height="30" as="geometry" />
        </mxCell>
        <mxCell id="D1f6TgdDjxvdr5GFky1n-13" style="edgeStyle=orthogonalEdgeStyle;rounded=0;orthogonalLoop=1;jettySize=auto;html=1;exitX=0.5;exitY=1;exitDx=0;exitDy=0;entryX=0.5;entryY=0;entryDx=0;entryDy=0;" edge="1" parent="1" source="D1f6TgdDjxvdr5GFky1n-10">
          <mxGeometry relative="1" as="geometry">
            <mxPoint x="390" y="790" as="targetPoint" />
          </mxGeometry>
        </mxCell>
        <mxCell id="D1f6TgdDjxvdr5GFky1n-10" value="j++" style="rounded=0;whiteSpace=wrap;html=1;" vertex="1" parent="1">
          <mxGeometry x="330" y="670" width="120" height="60" as="geometry" />
        </mxCell>
        <mxCell id="D1f6TgdDjxvdr5GFky1n-16" style="edgeStyle=orthogonalEdgeStyle;rounded=0;orthogonalLoop=1;jettySize=auto;html=1;exitX=1;exitY=0.5;exitDx=0;exitDy=0;entryX=1;entryY=0.5;entryDx=0;entryDy=0;" edge="1" parent="1" source="D1f6TgdDjxvdr5GFky1n-15" target="D1f6TgdDjxvdr5GFky1n-5">
          <mxGeometry relative="1" as="geometry">
            <Array as="points">
              <mxPoint x="580" y="875" />
              <mxPoint x="580" y="385" />
            </Array>
          </mxGeometry>
        </mxCell>
        <mxCell id="D1f6TgdDjxvdr5GFky1n-21" style="edgeStyle=orthogonalEdgeStyle;rounded=0;orthogonalLoop=1;jettySize=auto;html=1;exitX=0.5;exitY=1;exitDx=0;exitDy=0;entryX=0.5;entryY=0;entryDx=0;entryDy=0;" edge="1" parent="1" source="D1f6TgdDjxvdr5GFky1n-15" target="D1f6TgdDjxvdr5GFky1n-20">
          <mxGeometry relative="1" as="geometry" />
        </mxCell>
        <mxCell id="D1f6TgdDjxvdr5GFky1n-15" value="j&amp;lt;N - i - 1" style="rhombus;whiteSpace=wrap;html=1;" vertex="1" parent="1">
          <mxGeometry x="330" y="790" width="120" height="170" as="geometry" />
        </mxCell>
        <mxCell id="D1f6TgdDjxvdr5GFky1n-18" value="yes" style="text;html=1;align=center;verticalAlign=middle;whiteSpace=wrap;rounded=0;" vertex="1" parent="1">
          <mxGeometry x="440" y="840" width="60" height="30" as="geometry" />
        </mxCell>
        <mxCell id="D1f6TgdDjxvdr5GFky1n-19" value="no" style="text;html=1;align=center;verticalAlign=middle;whiteSpace=wrap;rounded=0;" vertex="1" parent="1">
          <mxGeometry x="255" y="350" width="60" height="30" as="geometry" />
        </mxCell>
        <mxCell id="D1f6TgdDjxvdr5GFky1n-24" style="edgeStyle=orthogonalEdgeStyle;rounded=0;orthogonalLoop=1;jettySize=auto;html=1;exitX=0.5;exitY=1;exitDx=0;exitDy=0;entryX=0.5;entryY=0;entryDx=0;entryDy=0;" edge="1" parent="1" source="D1f6TgdDjxvdr5GFky1n-20" target="D1f6TgdDjxvdr5GFky1n-23">
          <mxGeometry relative="1" as="geometry" />
        </mxCell>
        <mxCell id="D1f6TgdDjxvdr5GFky1n-20" value="j=0" style="rounded=0;whiteSpace=wrap;html=1;" vertex="1" parent="1">
          <mxGeometry x="330" y="1000" width="120" height="60" as="geometry" />
        </mxCell>
        <mxCell id="D1f6TgdDjxvdr5GFky1n-22" value="no" style="text;html=1;align=center;verticalAlign=middle;whiteSpace=wrap;rounded=0;" vertex="1" parent="1">
          <mxGeometry x="380" y="960" width="60" height="30" as="geometry" />
        </mxCell>
        <mxCell id="D1f6TgdDjxvdr5GFky1n-26" style="edgeStyle=orthogonalEdgeStyle;rounded=0;orthogonalLoop=1;jettySize=auto;html=1;exitX=0.5;exitY=1;exitDx=0;exitDy=0;entryX=0.5;entryY=0;entryDx=0;entryDy=0;" edge="1" parent="1" source="D1f6TgdDjxvdr5GFky1n-23" target="D1f6TgdDjxvdr5GFky1n-25">
          <mxGeometry relative="1" as="geometry" />
        </mxCell>
        <mxCell id="D1f6TgdDjxvdr5GFky1n-23" value="i++" style="rounded=0;whiteSpace=wrap;html=1;" vertex="1" parent="1">
          <mxGeometry x="330" y="1140" width="120" height="60" as="geometry" />
        </mxCell>
        <mxCell id="D1f6TgdDjxvdr5GFky1n-28" style="edgeStyle=orthogonalEdgeStyle;rounded=0;orthogonalLoop=1;jettySize=auto;html=1;exitX=0.5;exitY=1;exitDx=0;exitDy=0;entryX=0.5;entryY=0;entryDx=0;entryDy=0;" edge="1" parent="1" source="D1f6TgdDjxvdr5GFky1n-25" target="D1f6TgdDjxvdr5GFky1n-27">
          <mxGeometry relative="1" as="geometry" />
        </mxCell>
        <mxCell id="D1f6TgdDjxvdr5GFky1n-30" style="edgeStyle=orthogonalEdgeStyle;rounded=0;orthogonalLoop=1;jettySize=auto;html=1;exitX=1;exitY=0.5;exitDx=0;exitDy=0;entryX=1;entryY=0.5;entryDx=0;entryDy=0;" edge="1" parent="1" source="D1f6TgdDjxvdr5GFky1n-25" target="D1f6TgdDjxvdr5GFky1n-5">
          <mxGeometry relative="1" as="geometry">
            <mxPoint x="580.0000000000002" y="1305" as="sourcePoint" />
            <mxPoint x="605.0000000000002" y="370" as="targetPoint" />
            <Array as="points">
              <mxPoint x="620" y="1320" />
              <mxPoint x="620" y="385" />
            </Array>
          </mxGeometry>
        </mxCell>
        <mxCell id="D1f6TgdDjxvdr5GFky1n-25" value="i&amp;lt; N-1" style="rhombus;whiteSpace=wrap;html=1;" vertex="1" parent="1">
          <mxGeometry x="345" y="1260" width="95" height="120" as="geometry" />
        </mxCell>
        <mxCell id="D1f6TgdDjxvdr5GFky1n-27" value="Ordered array" style="ellipse;whiteSpace=wrap;html=1;" vertex="1" parent="1">
          <mxGeometry x="332.5" y="1430" width="120" height="80" as="geometry" />
        </mxCell>
        <mxCell id="D1f6TgdDjxvdr5GFky1n-29" value="no&lt;div&gt;&lt;br&gt;&lt;/div&gt;" style="text;html=1;align=center;verticalAlign=middle;whiteSpace=wrap;rounded=0;" vertex="1" parent="1">
          <mxGeometry x="380" y="1390" width="60" height="30" as="geometry" />
        </mxCell>
      </root>
    </mxGraphModel>
  </diagram>
</mxfile>
